<mxfile host="app.diagrams.net" modified="2024-03-19T09:20:15.991Z" agent="Mozilla/5.0 (Windows NT 10.0; Win64; x64) AppleWebKit/537.36 (KHTML, like Gecko) Chrome/122.0.0.0 Safari/537.36" etag="sSQuwO9T7IQRbdUQse5l" version="23.0.2" type="github">
  <diagram name="第 1 页" id="hFXtMmTSb2sQUVAaNlvA">
    <mxGraphModel dx="2358" dy="79" grid="1" gridSize="10" guides="1" tooltips="1" connect="1" arrows="1" fold="1" page="1" pageScale="1" pageWidth="827" pageHeight="1169" math="0" shadow="0">
      <root>
        <mxCell id="0" />
        <mxCell id="1" parent="0" />
        <mxCell id="jgqnruxI4edwX1Ub459z-1" value="传递模型简图" style="swimlane;html=1;startSize=30;horizontal=1;containerType=tree;glass=0;" vertex="1" parent="1">
          <mxGeometry x="110" y="1270" width="630" height="380" as="geometry">
            <mxRectangle x="740" y="1830" width="110" height="30" as="alternateBounds" />
          </mxGeometry>
        </mxCell>
        <mxCell id="jgqnruxI4edwX1Ub459z-2" value="" style="rounded=0;whiteSpace=wrap;html=1;" vertex="1" parent="jgqnruxI4edwX1Ub459z-1">
          <mxGeometry x="110" y="140" width="120" height="60" as="geometry" />
        </mxCell>
        <mxCell id="jgqnruxI4edwX1Ub459z-3" style="rounded=0;orthogonalLoop=1;jettySize=auto;html=1;endArrow=none;endFill=0;elbow=vertical;" edge="1" parent="jgqnruxI4edwX1Ub459z-1" source="jgqnruxI4edwX1Ub459z-4" target="jgqnruxI4edwX1Ub459z-2">
          <mxGeometry relative="1" as="geometry" />
        </mxCell>
        <mxCell id="jgqnruxI4edwX1Ub459z-4" value="伺服电动机" style="text;html=1;strokeColor=none;fillColor=none;align=center;verticalAlign=middle;whiteSpace=wrap;rounded=0;" vertex="1" parent="jgqnruxI4edwX1Ub459z-1">
          <mxGeometry x="110" y="97.5" width="60" height="30" as="geometry" />
        </mxCell>
        <mxCell id="jgqnruxI4edwX1Ub459z-5" style="rounded=0;orthogonalLoop=1;jettySize=auto;html=1;endArrow=none;endFill=0;entryX=0;entryY=0.5;entryDx=0;entryDy=0;" edge="1" parent="jgqnruxI4edwX1Ub459z-1" source="jgqnruxI4edwX1Ub459z-6" target="jgqnruxI4edwX1Ub459z-2">
          <mxGeometry relative="1" as="geometry" />
        </mxCell>
        <mxCell id="jgqnruxI4edwX1Ub459z-6" value="光电编码器" style="text;html=1;strokeColor=none;fillColor=none;align=center;verticalAlign=middle;whiteSpace=wrap;rounded=0;" vertex="1" parent="jgqnruxI4edwX1Ub459z-1">
          <mxGeometry x="50" y="182.5" width="60" height="30" as="geometry" />
        </mxCell>
        <mxCell id="jgqnruxI4edwX1Ub459z-7" value="PMSM" style="text;html=1;strokeColor=none;fillColor=none;align=center;verticalAlign=middle;whiteSpace=wrap;rounded=0;" vertex="1" parent="jgqnruxI4edwX1Ub459z-1">
          <mxGeometry x="140" y="155" width="60" height="30" as="geometry" />
        </mxCell>
        <mxCell id="jgqnruxI4edwX1Ub459z-8" value="" style="rounded=0;whiteSpace=wrap;html=1;" vertex="1" parent="jgqnruxI4edwX1Ub459z-1">
          <mxGeometry x="230" y="155" width="40" height="30" as="geometry" />
        </mxCell>
        <mxCell id="jgqnruxI4edwX1Ub459z-9" value="" style="rounded=0;whiteSpace=wrap;html=1;" vertex="1" parent="jgqnruxI4edwX1Ub459z-1">
          <mxGeometry x="263" y="127.5" width="27" height="85" as="geometry" />
        </mxCell>
        <mxCell id="jgqnruxI4edwX1Ub459z-10" value="" style="rounded=0;whiteSpace=wrap;html=1;" vertex="1" parent="jgqnruxI4edwX1Ub459z-1">
          <mxGeometry x="290" y="127.5" width="27" height="85" as="geometry" />
        </mxCell>
        <mxCell id="jgqnruxI4edwX1Ub459z-11" value="" style="rounded=0;whiteSpace=wrap;html=1;" vertex="1" parent="jgqnruxI4edwX1Ub459z-1">
          <mxGeometry x="317" y="155" width="63" height="30" as="geometry" />
        </mxCell>
        <mxCell id="jgqnruxI4edwX1Ub459z-12" value="" style="rounded=0;whiteSpace=wrap;html=1;" vertex="1" parent="jgqnruxI4edwX1Ub459z-1">
          <mxGeometry x="363" y="155" width="117" height="30" as="geometry" />
        </mxCell>
        <mxCell id="jgqnruxI4edwX1Ub459z-13" value="" style="endArrow=none;html=1;rounded=0;" edge="1" parent="jgqnruxI4edwX1Ub459z-1">
          <mxGeometry width="50" height="50" relative="1" as="geometry">
            <mxPoint x="373" y="184.5" as="sourcePoint" />
            <mxPoint x="393" y="155" as="targetPoint" />
          </mxGeometry>
        </mxCell>
        <mxCell id="jgqnruxI4edwX1Ub459z-14" value="" style="endArrow=none;html=1;rounded=0;" edge="1" parent="jgqnruxI4edwX1Ub459z-1">
          <mxGeometry width="50" height="50" relative="1" as="geometry">
            <mxPoint x="383" y="185" as="sourcePoint" />
            <mxPoint x="403" y="155.5" as="targetPoint" />
          </mxGeometry>
        </mxCell>
        <mxCell id="jgqnruxI4edwX1Ub459z-15" value="" style="endArrow=none;html=1;rounded=0;" edge="1" parent="jgqnruxI4edwX1Ub459z-1">
          <mxGeometry width="50" height="50" relative="1" as="geometry">
            <mxPoint x="393" y="185" as="sourcePoint" />
            <mxPoint x="413" y="155.5" as="targetPoint" />
          </mxGeometry>
        </mxCell>
        <mxCell id="jgqnruxI4edwX1Ub459z-16" value="" style="endArrow=none;html=1;rounded=0;" edge="1" parent="jgqnruxI4edwX1Ub459z-1">
          <mxGeometry width="50" height="50" relative="1" as="geometry">
            <mxPoint x="403" y="185" as="sourcePoint" />
            <mxPoint x="423" y="155.5" as="targetPoint" />
          </mxGeometry>
        </mxCell>
        <mxCell id="jgqnruxI4edwX1Ub459z-17" value="" style="endArrow=none;html=1;rounded=0;" edge="1" parent="jgqnruxI4edwX1Ub459z-1">
          <mxGeometry width="50" height="50" relative="1" as="geometry">
            <mxPoint x="413" y="185" as="sourcePoint" />
            <mxPoint x="433" y="155.5" as="targetPoint" />
          </mxGeometry>
        </mxCell>
        <mxCell id="jgqnruxI4edwX1Ub459z-18" value="" style="endArrow=none;html=1;rounded=0;" edge="1" parent="jgqnruxI4edwX1Ub459z-1">
          <mxGeometry width="50" height="50" relative="1" as="geometry">
            <mxPoint x="423" y="185" as="sourcePoint" />
            <mxPoint x="443" y="155.5" as="targetPoint" />
          </mxGeometry>
        </mxCell>
        <mxCell id="jgqnruxI4edwX1Ub459z-19" value="" style="endArrow=none;html=1;rounded=0;" edge="1" parent="jgqnruxI4edwX1Ub459z-1">
          <mxGeometry width="50" height="50" relative="1" as="geometry">
            <mxPoint x="433" y="185" as="sourcePoint" />
            <mxPoint x="453" y="155" as="targetPoint" />
          </mxGeometry>
        </mxCell>
        <mxCell id="jgqnruxI4edwX1Ub459z-20" value="" style="endArrow=none;html=1;rounded=0;" edge="1" parent="jgqnruxI4edwX1Ub459z-1">
          <mxGeometry width="50" height="50" relative="1" as="geometry">
            <mxPoint x="443" y="185" as="sourcePoint" />
            <mxPoint x="463" y="155.5" as="targetPoint" />
          </mxGeometry>
        </mxCell>
        <mxCell id="jgqnruxI4edwX1Ub459z-21" value="" style="endArrow=none;html=1;rounded=0;" edge="1" parent="jgqnruxI4edwX1Ub459z-1">
          <mxGeometry width="50" height="50" relative="1" as="geometry">
            <mxPoint x="453" y="185" as="sourcePoint" />
            <mxPoint x="473" y="155.5" as="targetPoint" />
          </mxGeometry>
        </mxCell>
        <mxCell id="jgqnruxI4edwX1Ub459z-22" value="" style="endArrow=none;html=1;rounded=0;jumpSize=6;endSize=3;startSize=3;" edge="1" parent="jgqnruxI4edwX1Ub459z-1">
          <mxGeometry width="50" height="50" relative="1" as="geometry">
            <mxPoint x="460" y="185" as="sourcePoint" />
            <mxPoint x="480" y="155" as="targetPoint" />
          </mxGeometry>
        </mxCell>
        <mxCell id="jgqnruxI4edwX1Ub459z-23" value="" style="endArrow=none;html=1;rounded=0;" edge="1" parent="jgqnruxI4edwX1Ub459z-1">
          <mxGeometry width="50" height="50" relative="1" as="geometry">
            <mxPoint x="363" y="184.5" as="sourcePoint" />
            <mxPoint x="383" y="155" as="targetPoint" />
          </mxGeometry>
        </mxCell>
        <mxCell id="jgqnruxI4edwX1Ub459z-24" value="" style="rounded=0;whiteSpace=wrap;html=1;" vertex="1" parent="jgqnruxI4edwX1Ub459z-1">
          <mxGeometry x="393" y="123" width="17" height="79" as="geometry" />
        </mxCell>
        <mxCell id="jgqnruxI4edwX1Ub459z-25" value="" style="rounded=0;whiteSpace=wrap;html=1;" vertex="1" parent="jgqnruxI4edwX1Ub459z-1">
          <mxGeometry x="378" y="113" width="47" height="10" as="geometry" />
        </mxCell>
        <mxCell id="jgqnruxI4edwX1Ub459z-26" value="联轴器" style="text;html=1;strokeColor=none;fillColor=none;align=center;verticalAlign=middle;whiteSpace=wrap;rounded=0;" vertex="1" parent="jgqnruxI4edwX1Ub459z-1">
          <mxGeometry x="283" y="240" width="60" height="30" as="geometry" />
        </mxCell>
        <mxCell id="jgqnruxI4edwX1Ub459z-27" style="rounded=0;orthogonalLoop=1;jettySize=auto;html=1;endArrow=none;endFill=0;" edge="1" parent="jgqnruxI4edwX1Ub459z-1" source="jgqnruxI4edwX1Ub459z-28" target="jgqnruxI4edwX1Ub459z-24">
          <mxGeometry relative="1" as="geometry" />
        </mxCell>
        <mxCell id="jgqnruxI4edwX1Ub459z-28" value="丝杆螺母" style="text;html=1;strokeColor=none;fillColor=none;align=center;verticalAlign=middle;whiteSpace=wrap;rounded=0;" vertex="1" parent="jgqnruxI4edwX1Ub459z-1">
          <mxGeometry x="371.5" y="220" width="60" height="30" as="geometry" />
        </mxCell>
        <mxCell id="jgqnruxI4edwX1Ub459z-29" style="rounded=0;orthogonalLoop=1;jettySize=auto;html=1;entryX=1;entryY=0.25;entryDx=0;entryDy=0;endArrow=none;endFill=0;" edge="1" parent="jgqnruxI4edwX1Ub459z-1" source="jgqnruxI4edwX1Ub459z-30" target="jgqnruxI4edwX1Ub459z-25">
          <mxGeometry relative="1" as="geometry" />
        </mxCell>
        <mxCell id="jgqnruxI4edwX1Ub459z-30" value="工作台" style="text;html=1;strokeColor=none;fillColor=none;align=center;verticalAlign=middle;whiteSpace=wrap;rounded=0;" vertex="1" parent="jgqnruxI4edwX1Ub459z-1">
          <mxGeometry x="443" y="70" width="60" height="30" as="geometry" />
        </mxCell>
        <mxCell id="jgqnruxI4edwX1Ub459z-31" value="丝杆" style="text;html=1;strokeColor=none;fillColor=none;align=center;verticalAlign=middle;whiteSpace=wrap;rounded=0;" vertex="1" parent="jgqnruxI4edwX1Ub459z-1">
          <mxGeometry x="493" y="210" width="60" height="30" as="geometry" />
        </mxCell>
        <mxCell id="jgqnruxI4edwX1Ub459z-32" style="rounded=0;orthogonalLoop=1;jettySize=auto;html=1;entryX=0.966;entryY=0.97;entryDx=0;entryDy=0;entryPerimeter=0;endArrow=none;endFill=0;" edge="1" parent="jgqnruxI4edwX1Ub459z-1" source="jgqnruxI4edwX1Ub459z-26" target="jgqnruxI4edwX1Ub459z-10">
          <mxGeometry relative="1" as="geometry" />
        </mxCell>
        <mxCell id="jgqnruxI4edwX1Ub459z-33" value="" style="endArrow=none;html=1;rounded=0;entryX=0.177;entryY=-0.012;entryDx=0;entryDy=0;entryPerimeter=0;exitX=0.169;exitY=0.965;exitDx=0;exitDy=0;exitPerimeter=0;" edge="1" parent="jgqnruxI4edwX1Ub459z-1" source="jgqnruxI4edwX1Ub459z-2" target="jgqnruxI4edwX1Ub459z-2">
          <mxGeometry width="50" height="50" relative="1" as="geometry">
            <mxPoint x="123" y="300" as="sourcePoint" />
            <mxPoint x="173" y="250" as="targetPoint" />
          </mxGeometry>
        </mxCell>
        <mxCell id="jgqnruxI4edwX1Ub459z-34" style="rounded=0;orthogonalLoop=1;jettySize=auto;html=1;entryX=1.001;entryY=0.882;entryDx=0;entryDy=0;entryPerimeter=0;endArrow=none;endFill=0;" edge="1" parent="jgqnruxI4edwX1Ub459z-1" source="jgqnruxI4edwX1Ub459z-31" target="jgqnruxI4edwX1Ub459z-12">
          <mxGeometry relative="1" as="geometry" />
        </mxCell>
      </root>
    </mxGraphModel>
  </diagram>
</mxfile>
